# xmcd CD database file
#
# Track frame offsets:
#	150
#	14613
#	26123
#	39670
#	50957
#	62284
#	76078
#	89775
#	103855
#	114359
#	125501
#	139558
#	153037
#	170719
#	179662
#	193649
#	206342
#	218364
#
# Disc length: 3110 seconds
#
# Revision: 1
# Processed by: cddbd v1.4PL0 Copyright (c) Steve Scherf et al.
# Submitted via: CDex 1.50beta9
#
DISCID=f90c2412
DTITLE=ella fitzgerald - midnite collection
DYEAR=2000
DGENRE=Jazz
TTITLE0=how high the moon
TTITLE1=it´s only a paper moon
TTITLE2=we can´t go on this way
TTITLE3=that old black magic
TTITLE4=a tisket-a tasket
TTITLE5=sing song swing it
TTITLE6=you´ll have to swing it
TTITLE7=you´ll never know
TTITLE8=taking a chance on love
TTITLE9=flying home
TTITLE10=oh lady be good
TTITLE11=cow cow boogie
TTITLE12=oh johnny
TTITLE13=lover come back to me
TTITLE14=so long
TTITLE15=big boy blue
TTITLE16=i´m the loneliest gal in town
TTITLE17=love and kisses
EXTD=YEAR: 2000
EXTT0=
EXTT1=
EXTT2=
EXTT3=
EXTT4=
EXTT5=
EXTT6=
EXTT7=
EXTT8=
EXTT9=
EXTT10=
EXTT11=
EXTT12=
EXTT13=
EXTT14=
EXTT15=
EXTT16=
EXTT17=
PLAYORDER=
